<svg width="27" height="27" viewBox="0 0 27 27" fill="none" xmlns="http://www.w3.org/2000/svg">
<g filter="url(#filter0_d_634_808)">
<path d="M13.6874 19C13.6245 19 13.5615 19 13.4982 18.9997C12.0088 19.0033 10.6327 18.9655 9.29438 18.884C8.0674 18.8094 6.94741 18.3854 6.0553 17.658C5.1945 16.9561 4.60667 16.007 4.30819 14.8375C4.04842 13.8193 4.03465 12.8198 4.02145 11.8531C4.01189 11.1595 4.00203 10.3375 4 9.50171C4.00203 8.6624 4.01189 7.84048 4.02145 7.14686C4.03465 6.18027 4.04842 5.18078 4.30819 4.16244C4.60667 2.99291 5.1945 2.04387 6.0553 1.34198C6.94741 0.614572 8.0674 0.190568 9.29452 0.115914C10.6328 0.0345919 12.0093 -0.00338736 13.5018 0.000236614C14.9916 -0.00295248 16.3673 0.0345919 17.7056 0.115914C18.9326 0.190568 20.0526 0.614572 20.9447 1.34198C21.8056 2.04387 22.3933 2.99291 22.6918 4.16244C22.9516 5.18063 22.9654 6.18027 22.9785 7.14686C22.9881 7.84048 22.9981 8.6624 23 9.49823V9.50171C22.9981 10.3375 22.9881 11.1595 22.9785 11.8531C22.9654 12.8197 22.9517 13.8192 22.6918 14.8375C22.3933 16.007 21.8056 16.9561 20.9447 17.658C20.0526 18.3854 18.9326 18.8094 17.7056 18.884C16.424 18.962 15.1074 19 13.6874 19ZM13.4982 17.5153C14.9633 17.5188 16.3086 17.4818 17.6155 17.4024C18.5432 17.346 19.3476 17.0449 20.0066 16.5076C20.6158 16.0108 21.0353 15.3254 21.2535 14.4705C21.4698 13.6229 21.4822 12.7128 21.4943 11.8328C21.5037 11.1438 21.5135 10.3277 21.5156 9.49997C21.5135 8.67211 21.5037 7.85614 21.4943 7.16715C21.4822 6.2871 21.4698 5.37705 21.2535 4.52933C21.0353 3.67437 20.6158 2.989 20.0066 2.49223C19.3476 1.95501 18.5432 1.65393 17.6155 1.59754C16.3086 1.51796 14.9633 1.48128 13.5017 1.48447C12.0368 1.48099 10.6914 1.51796 9.38454 1.59754C8.45677 1.65393 7.65237 1.95501 6.99336 2.49223C6.38422 2.989 5.9647 3.67437 5.74653 4.52933C5.53024 5.37705 5.51777 6.28696 5.50574 7.16715C5.49632 7.85672 5.48646 8.67327 5.48443 9.50171C5.48646 10.3265 5.49632 11.1432 5.50574 11.8328C5.51777 12.7128 5.53024 13.6229 5.74653 14.4705C5.9647 15.3254 6.38422 16.0108 6.99336 16.5076C7.65237 17.0448 8.45677 17.3459 9.38454 17.4023C10.6914 17.4818 12.0371 17.519 13.4982 17.5153ZM13.4628 14.1387C10.9051 14.1387 8.82397 12.0578 8.82397 9.49997C8.82397 6.94217 10.9051 4.86129 13.4628 4.86129C16.0207 4.86129 18.1017 6.94217 18.1017 9.49997C18.1017 12.0578 16.0207 14.1387 13.4628 14.1387ZM13.4628 6.34567C11.7235 6.34567 10.3084 7.76076 10.3084 9.49997C10.3084 11.2392 11.7235 12.6543 13.4628 12.6543C15.2022 12.6543 16.6172 11.2392 16.6172 9.49997C16.6172 7.76076 15.2022 6.34567 13.4628 6.34567ZM18.6212 3.37691C18.0064 3.37691 17.5079 3.87528 17.5079 4.49019C17.5079 5.10511 18.0064 5.60348 18.6212 5.60348C19.2362 5.60348 19.7345 5.10511 19.7345 4.49019C19.7345 3.87528 19.2362 3.37691 18.6212 3.37691Z" fill="white"/>
</g>
<defs>
<filter id="filter0_d_634_808" x="0" y="0" width="27" height="27" filterUnits="userSpaceOnUse" color-interpolation-filters="sRGB">
<feFlood flood-opacity="0" result="BackgroundImageFix"/>
<feColorMatrix in="SourceAlpha" type="matrix" values="0 0 0 0 0 0 0 0 0 0 0 0 0 0 0 0 0 0 127 0" result="hardAlpha"/>
<feOffset dy="4"/>
<feGaussianBlur stdDeviation="2"/>
<feComposite in2="hardAlpha" operator="out"/>
<feColorMatrix type="matrix" values="0 0 0 0 0 0 0 0 0 0 0 0 0 0 0 0 0 0 0.25 0"/>
<feBlend mode="normal" in2="BackgroundImageFix" result="effect1_dropShadow_634_808"/>
<feBlend mode="normal" in="SourceGraphic" in2="effect1_dropShadow_634_808" result="shape"/>
</filter>
</defs>
</svg>
