<svg width="30" height="24" viewBox="0 0 30 24" fill="none" xmlns="http://www.w3.org/2000/svg">
<g filter="url(#filter0_d_634_805)">
<path d="M14.9992 15.9919C14.9974 15.9919 14.9954 15.9919 14.9933 15.9919C14.3295 15.9873 8.46091 15.9338 6.79822 15.4841C5.63621 15.1718 4.71893 14.2555 4.40573 13.0933C3.97067 11.46 3.99836 8.3154 4.00138 8.0643C3.99853 7.81437 3.9705 4.64375 4.40439 2.997C4.40489 2.99549 4.40522 2.99381 4.40573 2.9923C4.71541 1.84339 5.65333 0.898744 6.79537 0.585542C6.79822 0.584702 6.80124 0.584031 6.80409 0.583192C8.44799 0.151154 14.3282 0.0982819 14.9933 0.09375H15.0053C15.6708 0.0982819 21.555 0.151825 23.2024 0.602158C24.3614 0.913682 25.278 1.82878 25.592 2.98945C26.0434 4.63737 26.0016 7.81488 25.9971 8.0831C26.0002 8.34729 26.0266 11.4637 25.5941 13.1052C25.5937 13.1069 25.5932 13.1084 25.5929 13.1099C25.2795 14.2721 24.3624 15.1884 23.199 15.5011C23.1975 15.5016 23.1959 15.5019 23.1943 15.5024C21.5506 15.9343 15.6703 15.9872 15.0053 15.9919C15.0033 15.9919 15.0012 15.9919 14.9992 15.9919ZM6.06573 3.43776C5.68371 4.89132 5.7198 8.0215 5.72014 8.05305V8.07571C5.70872 8.94382 5.74884 11.4578 6.0659 12.6485C6.21965 13.2187 6.672 13.6704 7.2457 13.8246C8.47249 14.1565 13.2523 14.2609 14.9992 14.2731C16.7507 14.2609 21.5375 14.1593 22.7553 13.8408C23.3271 13.686 23.778 13.2358 23.9327 12.665C24.2501 11.4568 24.2899 8.95506 24.2783 8.0925C24.2783 8.08343 24.2783 8.07437 24.2785 8.06531C24.2943 7.18679 24.2632 4.64341 23.9342 3.44314C23.9339 3.44196 23.9335 3.44079 23.9334 3.43961C23.779 2.86692 23.3264 2.41524 22.7527 2.26099C21.5379 1.92882 16.7504 1.82476 14.9992 1.8125C13.2489 1.82476 8.46679 1.92614 7.24536 2.24437C6.68257 2.40047 6.21999 2.86826 6.06573 3.43776ZM12.8087 11.5231V4.56234L18.8243 8.04281L12.8087 11.5231Z" fill="white"/>
</g>
<defs>
<filter id="filter0_d_634_805" x="0" y="0.09375" width="30" height="23.8982" filterUnits="userSpaceOnUse" color-interpolation-filters="sRGB">
<feFlood flood-opacity="0" result="BackgroundImageFix"/>
<feColorMatrix in="SourceAlpha" type="matrix" values="0 0 0 0 0 0 0 0 0 0 0 0 0 0 0 0 0 0 127 0" result="hardAlpha"/>
<feOffset dy="4"/>
<feGaussianBlur stdDeviation="2"/>
<feComposite in2="hardAlpha" operator="out"/>
<feColorMatrix type="matrix" values="0 0 0 0 0 0 0 0 0 0 0 0 0 0 0 0 0 0 0.25 0"/>
<feBlend mode="normal" in2="BackgroundImageFix" result="effect1_dropShadow_634_805"/>
<feBlend mode="normal" in="SourceGraphic" in2="effect1_dropShadow_634_805" result="shape"/>
</filter>
</defs>
</svg>
